<svg width="51" height="51" viewBox="0 0 51 51" xmlns="http://www.w3.org/2000/svg">
<path d="M10.8906 25.5C10.8906 17.4313 17.4313 10.8906 25.5 10.8906C33.5687 10.8906 40.1094 17.4313 40.1094 25.5C40.1094 33.5687 33.5687 40.1094 25.5 40.1094C17.4313 40.1094 10.8906 33.5687 10.8906 25.5ZM25.5 13.5469C18.8983 13.5469 13.5469 18.8983 13.5469 25.5C13.5469 32.1017 18.8983 37.4531 25.5 37.4531C32.1017 37.4531 37.4531 32.1017 37.4531 25.5C37.4531 18.8983 32.1017 13.5469 25.5 13.5469Z" fill="#F4F6F6"/>
<path d="M31.0369 21.1925C31.5821 21.6832 31.6263 22.523 31.1356 23.0682L25.1591 29.7088C24.9227 29.9715 24.5913 30.1291 24.2383 30.1468C23.8854 30.1645 23.5399 30.0407 23.2784 29.803L19.9581 26.7842C19.4154 26.2907 19.3755 25.4508 19.8689 24.908C20.3623 24.3653 21.2023 24.3254 21.745 24.8188L24.0777 26.9397L29.1613 21.2912C29.6519 20.746 30.4917 20.7018 31.0369 21.1925Z" fill="#F4F6F6"/>
</svg>
